<svg width="150" height="80" viewBox="0 0 88 64" fill="none" xmlns="http://www.w3.org/2000/svg">
<mask id="mask0" mask-type="alpha" maskUnits="userSpaceOnUse" x="0" y="0" width="88" height="64">
<path d="M14.6521 33.6103H27.9716C28.4155 39.5726 29.7471 44.4509 32.4114 49.3303C31.0798 49.8723 30.192 49.8723 29.3032 49.8723C21.7562 49.8723 15.5399 42.826 14.6521 33.6103V33.6103ZM31.0798 33.6103H43.9553C43.5115 40.1146 39.9594 45.5361 35.5196 48.2462C32.8563 43.91 31.5236 39.0306 31.0798 33.6103V33.6103ZM37.2951 51.4984C42.6237 48.2462 46.6196 41.7407 47.0635 34.1524H75.9229C75.48 48.2462 65.7116 59.6299 53.7247 59.6299C47.0645 59.6299 41.7369 56.3778 37.2961 51.4984H37.2951ZM28.8603 22.2266C32.8563 22.2266 35.9644 25.4788 36.4083 30.357H21.3114C21.7562 25.4788 24.8634 22.2254 28.8594 22.2254L28.8603 22.2266ZM63.0473 10.8417C70.1514 13.0098 75.479 20.5993 76.3668 30.357H69.7075C69.2636 22.7675 66.5993 15.7211 63.0473 10.8417V10.8417ZM57.7197 9.75765C62.6034 14.6371 65.7116 21.6834 66.1554 29.815H40.8472C41.2911 18.9733 48.8391 10.2997 57.7197 9.75765V9.75765ZM43.5105 3.79418C47.0616 3.79418 50.6146 4.87942 53.2779 6.5055C46.1748 8.6736 39.9584 15.7211 38.1829 24.3947C36.4074 20.5994 32.8543 17.8892 28.8584 17.8892C26.639 17.8892 24.8624 18.9733 23.0869 20.0573C26.639 10.2997 34.6318 3.79537 43.5105 3.79537V3.79418ZM43.5105 0.00118605C29.7481 0 18.648 13.5518 17.7593 29.815H2.66429C1.33165 29.815 0 31.4422 0 33.6103C0 34.1524 0 34.1524 0.443885 34.1524H11.5439C12.4317 45.5361 19.9797 54.2085 29.3032 54.2085C31.0788 54.2085 32.8553 53.6677 34.1879 53.1256C39.0716 59.6299 45.7319 63.9662 53.2799 63.9662C67.0432 63.9662 78.1433 50.9564 79.031 34.1524H84.3586C85.6913 34.1524 87.0229 32.5251 87.0229 30.899C87.0229 30.357 87.0229 30.357 86.579 30.357H79.031C78.5872 17.346 69.2636 6.5055 58.6075 6.5055C54.6115 2.1681 49.2829 0 43.5105 0V0.00118605Z" fill="white"/>
</mask>
<g mask="url(#mask0)">
<path d="M0 0H87.4668V63.4253H0V0Z" fill="#5E8C5F"/>
</g>
</svg>
