<svg width="200" height="100" viewBox="0 0 117 86" fill="none" xmlns="http://www.w3.org/2000/svg">
<mask id="mask0" mask-type="alpha" maskUnits="userSpaceOnUse" x="0" y="0" width="117" height="86">
<path d="M19.6992 45.1878H37.6067C38.2035 53.2039 39.9938 59.7624 43.5759 66.3226C41.7855 67.0514 40.5919 67.0514 39.3971 67.0514C29.2504 67.0514 20.8928 57.5778 19.6992 45.1878V45.1878ZM41.7855 45.1878H59.0962C58.4995 53.9326 53.7239 61.2215 47.7547 64.8652C44.174 59.0353 42.3823 52.4751 41.7855 45.1878V45.1878ZM50.1418 69.2376C57.3059 64.8652 62.6783 56.1188 63.2751 45.9165H102.075C101.48 64.8652 88.3466 80.1701 72.2308 80.1701C63.2764 80.1701 56.1136 75.7977 50.1431 69.2376H50.1418ZM38.8016 29.8828C44.174 29.8828 48.3528 34.2552 48.9496 40.8138H28.6523C29.2504 34.2552 33.4279 29.8812 38.8003 29.8812L38.8016 29.8828ZM84.7646 14.5762C94.3158 17.4912 101.479 27.695 102.672 40.8138H93.719C93.1222 30.61 89.5402 21.1364 84.7646 14.5762V14.5762ZM77.6019 13.1188C84.1678 19.679 88.3466 29.1525 88.9434 40.0851H54.9174C55.5142 25.5088 65.6622 13.8475 77.6019 13.1188V13.1188ZM58.4981 5.10113C63.2724 5.10113 68.0494 6.56019 71.6301 8.74638C62.0802 11.6613 53.7226 21.1364 51.3354 32.7977C48.9483 27.695 44.1713 24.0514 38.799 24.0514C35.815 24.0514 33.4266 25.5088 31.0394 26.9663C35.815 13.8475 46.5611 5.10272 58.4981 5.10272V5.10113ZM58.4981 0.0015946C39.9952 0 25.0716 18.2199 23.8767 40.0851H3.58203C1.79036 40.0851 0 42.2729 0 45.1878C0 45.9165 0 45.9165 0.596786 45.9165H15.5204C16.7139 61.2215 26.8619 72.8812 39.3971 72.8812C41.7842 72.8812 44.1727 72.1541 45.9643 71.4254C52.5303 80.1701 61.4847 86 71.6327 86C90.137 86 105.061 68.5088 106.254 45.9165H113.417C115.209 45.9165 116.999 43.7287 116.999 41.5425C116.999 40.8138 116.999 40.8138 116.402 40.8138H106.254C105.657 23.321 93.1222 8.74638 78.7954 8.74638C73.423 2.91493 66.259 0 58.4981 0V0.0015946Z" fill="white"/>
</mask>
<g mask="url(#mask0)">
<path d="M0 0H117.596V85.2729H0V0Z" fill="#5E8C5F"/>
</g>
</svg>
