<?xml version="1.0" encoding="UTF-8"?>
<svg width="603px" height="274px" viewBox="0 0 603 274" version="1.1" xmlns="http://www.w3.org/2000/svg" xmlns:xlink="http://www.w3.org/1999/xlink">
    <title>3B5AFE40-1335-4228-B58B-307547021F2F</title>
    <g id="HOME" stroke="none" stroke-width="1" fill="none" fill-rule="evenodd" stroke-linecap="round" stroke-linejoin="round">
        <g id="HOME-Deep_Violet" transform="translate(-719.000000, -1613.000000)" stroke="#6864A6" stroke-width="2">
            <g id="BLOC-:-Réseau" transform="translate(61.000000, 1597.000000)">
                <path d="M1185,24 L1185,24 C1188.31356,24 1191,26.7221193 1191,30.079696 L1191,61 L1185,24 Z M1184,68 L1197,68 L1197,64 L1197,60 L1184,60 L1184,68 Z M1169,48.5 L1181,48.5 L1169,48.5 Z M1185,83 L1185,25.0861748 C1185,20.6202102 1181.64235,17 1177.50029,17 C1173.35824,17 1170,20.6202102 1170,25.0861748 L1170,83 L1185,83 Z M1193,69 L1189,74.1483842 L1189,78 L1193,69 Z M1125,24 L1125.00063,24 C1128.69448,24 1131,26.7221193 1131,30.079696 L1131,61 L1125,24 Z M1123,68 L1136,68 L1136,64 L1136,60 L1123,60 L1123,68 Z M1108,48.5 L1120,48.5 L1108,48.5 Z M1124,83 L1124,25.0861748 C1124,20.6202102 1120.64294,17 1116.50029,17 C1112.35824,17 1109,20.6202102 1109,25.0861748 L1109,83 L1124,83 Z M1134,69 L1130,74.1483842 L1130,78 L1134,69 Z M1062,24 L1062,24 C1066.22951,24 1068,26.7221193 1068,30.079696 L1068,61 L1062,24 Z M1062,68 L1075,68 L1075,64 L1075,60 L1062,60 L1062,68 Z M1046,48.5 L1058,48.5 L1046,48.5 Z M1062,83 L1062,25.0861748 C1062,20.6202102 1058.64176,17 1054.50029,17 C1050.35765,17 1047,20.6202102 1047,25.0861748 L1047,83 L1062,83 Z M1073,69 L1069,74.1483842 L1069,78 L1073,69 Z M1001,24 L1001,24 C1005.34729,24 1007,26.7221193 1007,30.079696 L1007,61 L1001,24 Z M1000,68 L1013,68 L1013,64 L1013,60 L1000,60 L1000,68 Z M1077,99 L1195.40143,99 C1201.25464,99 1206,94.2985713 1206,88.5003055 C1206,82.7008176 1201.25464,78 1195.40143,78 L1185.5073,78 L1077,99 Z M1169,77.5 L1125,77.5 L1169,77.5 Z M1107,77.5 L1062,77.5 L1107,77.5 Z M1046,77.5 L1001,77.5 L1046,77.5 Z M985.984383,78 L974.583818,78 C968.737865,78 964,82.7008176 964,88.5003055 C964,94.2985713 968.737865,99 974.583818,99 L1057,99 L985.984383,78 Z M1209,103.5 L1077,103.5 L1209,103.5 Z M1056,103.5 L967,103.5 L1056,103.5 Z M1081,163.5 L1106,163.5 L1081,163.5 Z M1127,163 L1209,163 L1209,155 L1127,155 L1127,163 Z M1106,155.5 L1081,155.5 L1106,155.5 Z M1005,163.5 L1053,163.5 L1005,163.5 Z M1053,155.5 L1005,155.5 L1053,155.5 Z M986,155 L967,155 L967,163 L986,163 L986,155 Z M986,48.5 L998,48.5 L986,48.5 Z M1001,83 L1001,25.0861748 C1001,20.6202102 997.642354,17 993.500295,17 C989.358235,17 986,20.6202102 986,25.0861748 L986,83 L1001,83 Z M1012,69 L1008,74.1483842 L1008,78 L1012,69 Z M1230.5,287 L1230.5,77 L1230.5,287 Z M1215,87.5 L1230,87.5 L1215,87.5 Z M1215,97.5 L1230,97.5 L1215,97.5 Z M1215,108.5 L1230,108.5 L1215,108.5 Z M1215,119.5 L1230,119.5 L1215,119.5 Z M1215,131.5 L1230,131.5 L1215,131.5 Z M1215,142.5 L1230,142.5 L1215,142.5 Z M1215,152.5 L1230,152.5 L1215,152.5 Z M1215,164.5 L1230,164.5 L1215,164.5 Z M1215,175.5 L1230,175.5 L1215,175.5 Z M1215,187.5 L1230,187.5 L1215,187.5 Z M1215,198.5 L1230,198.5 L1215,198.5 Z M1215,209.5 L1230,209.5 L1215,209.5 Z M1215,221.5 L1230,221.5 L1215,221.5 Z M1215,231.5 L1230,231.5 L1215,231.5 Z M1215,242.5 L1230,242.5 L1215,242.5 Z M1215,254.5 L1230,254.5 L1215,254.5 Z M1215,265.5 L1230,265.5 L1215,265.5 Z M1215,277.5 L1230,277.5 L1215,277.5 Z M1132,178.5 L1188,178.5 L1132,178.5 Z M1200,194 L1200,163 L1187,163 L1187,194 L1200,194 Z M1211,199.5 L1211,199.5 C1211,196.462068 1208.65723,194 1205.7679,194 L1165.23273,194 C1162.34277,194 1160,196.462068 1160,199.5 C1160,202.537274 1162.34277,205 1165.23273,205 L1205.7679,205 C1208.65723,205 1211,202.537274 1211,199.5 Z M1141.5,157 L1141.5,104 L1141.5,157 Z M1037.5,157 L1037.5,104 L1037.5,157 Z M967.5,104 L967.5,157 L967.5,104 Z M1209.5,156 L1209.5,111 L1209.5,156 Z M1141.5,78 L1141.5,99 L1141.5,78 Z M1081.5,78 L1081.5,99 L1081.5,78 Z M1020.5,78 L1020.5,99 L1020.5,78 Z M1057,106.5 L1076,106.5 L1057,106.5 Z M1057.11416,95 L1057.11416,106.267765 L1053,128.096255 L1053.0012,182 L1080,182 L1080,128.096255 L1075.58829,106.267765 L1075.58829,95 L1057.11416,95 Z M1107,285 L1126,285 L1126,113 L1107,113 L1107,285 Z M987,285 L1006,285 L1006,113 L987,113 L987,285 Z M986,127.5 L967,127.5 L986,127.5 Z M1038,127.5 L1006,127.5 L1038,127.5 Z M1053,127.5 L1038,127.5 L1053,127.5 Z M1106,127.5 L1081,127.5 L1106,127.5 Z M1142,127.5 L1127,127.5 L1142,127.5 Z M1140,127.5 L1193,127.5 L1140,127.5 Z M1187,227.407541 L1187,204 L1173,204 L1173,227.407541 C1173,231.048797 1176.13401,234 1179.99935,234 C1183.86599,234 1187,231.048797 1187,227.407541 Z M1144,227.407541 L1144,204 L1130,204 L1130,227.407541 C1130,231.048797 1133.13415,234 1136.99967,234 C1140.86585,234 1144,231.048797 1144,227.407541 Z M1045,192 L1089,192 L1089,187 L1045,187 L1045,192 Z M1045,187 L1089,187 L1089,182 L1045,182 L1045,187 Z M1006,263 L1026,263 L1026,220 L1006,220 L1006,263 Z M659,288.5 L1260,288.5 L659,288.5 Z M1126,205 L1150.25892,205 C1157.7202,205 1158.10477,194 1150.25892,194 L1126,194 L1126,205 Z M986,228 L742.581018,228 L723.276946,228 C704.346746,228 689,243.6592 689,262.975444 L689,288 L717.759545,288 L717.759545,270.330091 C717.759545,263.158582 723.456429,257.345078 730.485464,257.345078 L985.615571,257.345078 L986,228 Z M1215.5,77 L1215.5,287 L1215.5,77 Z M1126.5,139 L1126.5,147 L1126.5,139 Z M1106,178.5 L1081,178.5 L1106,178.5 Z M1126,239 L1193.53065,239 C1203.53756,239 1203.44189,222 1193.53065,222 L1185.78433,222 L1126,239 Z M766.5,227 L766.5,256 L766.5,227 Z M865.5,227 L865.5,256 L865.5,227 Z M965.5,227 L965.5,256 L965.5,227 Z M690,268.5 L719,268.5 L690,268.5 Z M1146,222.5 L1173,222.5 L1146,222.5 Z M1053.16853,192 C1053.16853,192 1055.10601,227.16867 1026,227.16867 L1026,257 L1026.78167,257 C1050.63368,257 1081,241.108877 1081,192 L1053.16853,192 Z M1107,222.5 L1076,222.5 L1107,222.5 Z M1106,238.5 L1073,238.5 L1106,238.5 Z M1126,222.5 L1132,222.5 L1126,222.5 Z" id="img"></path>
            </g>
        </g>
    </g>
</svg>