<svg width="280" height="65" xmlns="http://www.w3.org/2000/svg" xmlns:xlink="http://www.w3.org/1999/xlink"><defs><path id="a" d="M0 0h254.194v53.476H0z"/><path id="c" d="M0 0h254.194v53.476H0z"/><path id="e" d="M0 0h254.194v53.476H0z"/><path id="g" d="M0 0h254.194v53.476H0z"/><path id="i" d="M0 0h254.194v53.476H0z"/><path id="k" d="M0 0h254.194v53.476H0z"/><path id="m" d="M0 0h279.836v58.511H0z"/><path d="M15.019 28.338h13.653c.455 5.027 1.82 9.14 4.551 13.254-1.365.457-2.275.457-3.186.457-7.736 0-14.108-5.941-15.018-13.711m16.839 0h13.198c-.455 5.484-4.096 10.055-8.647 12.34-2.73-3.656-4.096-7.77-4.551-12.34m6.371 15.082c5.462-2.742 9.558-8.227 10.013-14.625h29.582C77.37 40.678 67.357 50.276 55.07 50.276c-6.827 0-12.288-2.742-16.84-6.856m-8.647-24.68c4.096 0 7.282 2.742 7.737 6.855H21.845c.456-4.113 3.641-6.856 7.737-6.856m35.044-9.598c7.282 1.828 12.743 8.227 13.653 16.454h-6.826c-.455-6.399-3.186-12.34-6.827-16.454m-5.461-.914c5.006 4.114 8.192 10.055 8.647 16.911H41.87c.455-9.141 8.192-16.454 17.295-16.911M44.6 3.199c3.64 0 7.282.915 10.012 2.286-7.281 1.828-13.653 7.77-15.473 15.083-1.82-3.2-5.462-5.485-9.558-5.485-2.275 0-4.096.914-5.916 1.828C27.306 8.684 35.499 3.2 44.6 3.2m0-3.199C30.493 0 19.115 11.426 18.204 25.138H2.731C1.365 25.138 0 26.51 0 28.338c0 .457 0 .457.455.457h11.378c.91 9.598 8.647 16.91 18.204 16.91 1.82 0 3.641-.456 5.007-.913 5.006 5.484 11.833 9.14 19.57 9.14 14.108 0 25.486-10.969 26.396-25.137h5.461c1.366 0 2.731-1.372 2.731-2.743 0-.457 0-.457-.455-.457H81.01c-.455-10.97-10.012-20.11-20.935-20.11C55.979 1.828 50.517 0 44.6 0z" id="o"/></defs><g fill="none" fill-rule="evenodd"><g transform="translate(12.72 .727)"><mask id="b" fill="#fff"><use xlink:href="#a"/></mask><path d="M189.39 9.598c1.37 0 2.739-1.371 2.739-2.742 0-.457 0-.457-.457-.457h-13.69c-1.37 0-2.739 1.371-2.739 2.742 0 .457 0 .457.457.457" fill="#FFFFFF" fill-rule="nonzero" mask="url(#b)"/></g><g transform="translate(12.72 .727)"><mask id="d" fill="#fff"><use xlink:href="#c"/></mask><path fill="#FFFFFF" fill-rule="nonzero" mask="url(#d)" d="M109.983 18.282v21.482h-4.563V18.282h-8.215v-3.656h20.993v3.656z"/></g><g transform="translate(12.72 .727)"><mask id="f" fill="#fff"><use xlink:href="#e"/></mask><path d="M176.156 28.795c0 4.57 3.65 7.313 8.215 7.313 3.194 0 5.02-1.372 6.845-3.2l3.195 2.742c-2.739 3.2-5.933 4.571-10.04 4.571-7.759 0-12.779-5.485-12.779-13.255 0-7.77 5.02-13.254 12.322-13.254s11.866 5.941 11.866 13.254v1.829h-19.624zm15.06-3.2c-.456-4.57-3.195-7.77-7.302-7.77-4.563 0-7.302 3.657-7.758 7.77h15.06z" fill="#FFFFFF" fill-rule="nonzero" mask="url(#f)"/></g><g transform="translate(12.72 .727)"><mask id="h" fill="#fff"><use xlink:href="#g"/></mask><path d="M163.378 39.764l-5.02-9.141h-6.846v9.141h-4.563V14.626h11.865c5.477 0 8.671 3.656 8.671 8.227 0 3.656-2.282 6.399-5.02 7.313l5.933 9.598h-5.02zm-4.564-21.482h-7.302v8.684h7.302c2.738 0 4.564-1.828 4.564-4.113-.457-2.285-2.282-4.57-4.564-4.57" fill="#FFFFFF" fill-rule="nonzero" mask="url(#h)"/></g><g transform="translate(12.72 .727)"><mask id="j" fill="#fff"><use xlink:href="#i"/></mask><path d="M222.705 25.595H210.84v3.657h7.301c.457 4.113-2.281 7.313-7.301 7.313s-7.759-3.657-7.759-9.142c0-5.484 2.739-9.14 7.759-9.14 2.738 0 5.02 1.37 6.845 3.656l3.65-2.286c-2.28-3.656-5.932-5.941-10.495-5.941-7.759 0-12.779 5.484-12.779 13.254s5.02 13.255 12.779 13.255c7.758 0 11.865-5.485 11.865-11.883v-2.743" fill="#FFFFFF" fill-rule="nonzero" mask="url(#j)"/></g><g transform="translate(12.72 .727)"><mask id="l" fill="#fff"><use xlink:href="#k"/></mask><path d="M253.738 35.65c-.913.458-2.282.458-2.739 0-.456-.457-.456-3.199-.456-3.199V14.626h-4.563v2.285a11.002 11.002 0 00-7.759-3.2c-7.758 0-12.778 5.942-12.778 13.255 0 7.313 5.02 13.255 12.778 13.255 3.651 0 6.846-1.371 8.671-3.2 2.282 5.028 7.758 2.743 7.758 2.743l-.912-4.114zm-15.517.458c-5.02 0-7.758-3.657-7.758-9.142 0-5.484 2.738-9.14 7.758-9.14 2.739 0 5.477 1.37 6.846 3.656 0 0 .913 1.828.913 3.656v3.657c0 3.656-2.739 7.313-7.759 7.313" fill="#FFFFFF" fill-rule="nonzero" mask="url(#l)"/></g><g transform="translate(0 5.451)"><mask id="n" fill="#fff"><use xlink:href="#m"/></mask><path d="M136.85 24.07c0 4.57 3.651 7.313 8.215 7.313 3.195 0 5.02-1.371 6.845-3.2l3.195 2.743c-2.738 3.2-5.933 4.57-10.04 4.57-7.758 0-12.778-5.484-12.778-13.254s5.02-13.255 12.322-13.255c7.301 0 11.865 5.942 11.865 13.255v1.828H136.85zm15.06-3.2c-.456-4.57-3.194-7.77-7.301-7.77-4.564 0-7.302 3.657-7.759 7.77h15.06z" fill="#FFFFFF" fill-rule="nonzero" mask="url(#n)"/></g><g transform="translate(12.72 .727)"><mask id="q" fill="#fff"><use xlink:href="#o"/></mask><path fill-rule="nonzero" fill="#FFFFFF" mask="url(#q)" d="M0 0h89.657v53.476H0z"/></g></g></svg>