<svg xmlns="http://www.w3.org/2000/svg" width="284" height="304"><defs><linearGradient id="a" x1="50%" x2="50%" y1="0%" y2="100%"><stop offset="0%" stop-color="#008DD1"/><stop offset="100%" stop-color="#5CB235"/></linearGradient></defs><path fill="url(#a)" fill-rule="evenodd" d="M1355.383 440.384c.296 0 .576.053.834.165l.18.09c.437.238.778.625.964 1.085l.062.176-.505.153.507-.147.148.511.094-.082c.385-.31.865-.475 1.347-.462.228 0 .457.04.716.121a32.765 32.765 0 0115.982 12.36l.326.489a32.77 32.77 0 014.064 8.754 32.363 32.363 0 011.303 9.094 32.939 32.939 0 01-6.483 19.527l-.364.48c-.403.523-1.028.833-1.623.83-.093.01-.182.014-.272.01l-.137-.01.122-1.097.09.005.136-.008c.268 0 .529-.11.72-.301l.09-.102a31.83 31.83 0 006.595-19.369c0-2.973-.424-5.933-1.258-8.781a31.452 31.452 0 00-3.544-7.866l-.36-.56a31.688 31.688 0 00-15.176-12.176l-.55-.203a1.19 1.19 0 00-.37-.06.98.98 0 00-.605.19l-.1.086-.382.365 14.717 50.358a2.118 2.118 0 01-1.245 2.577l-.165.057-21.677 6.341-.074.02v.016l-.054-.001a1.98 1.98 0 01-.27.046l-.205.01-.001-.056h-.021a2.128 2.128 0 01-1.982-1.334l-.06-.165-.842-2.88-62.009 15.378c-.116.01-.238.013-.336.009l-.09-.007c-.237 0-.468-.04-.69-.12.044.4.072.807.085 1.217l.01.58c0 2.925-.732 5.736-2.09 8.221l.156.001c.717.07 1.345.495 1.671 1.122l.076.161 42.385 99.936c.349.807.53 1.687.53 2.569 0 .853-.167 1.696-.491 2.489a6.592 6.592 0 01-3.547 3.615l-.223.085h55.598V635h-222.472v-1.103h55.645a6.603 6.603 0 01-3.16-2.545 6.632 6.632 0 01-.663-5.92l.11-.28 42.396-99.914a2.097 2.097 0 011.602-1.263l.188-.025h.076a16.927 16.927 0 01-1.82-5.038 2.09 2.09 0 01-.588.299l-.165.045-45.324 10.98a2.619 2.619 0 01-.337.01l-.089-.007c-.4 0-.778-.107-1.108-.31l-.121-.083-.01-.006-.001-.001-.004-.003v.001a2.13 2.13 0 01-.8-.968l-.063-.174-.506-1.728-37.212 9.154 1.798 6.144-.53.154.538-.123c.044.192.069.385.069.565 0 .353-.087.706-.255 1.026-.24.44-.634.783-1.093.958l-.175.057-11.347 3.308c-.132.04-.264.067-.399.08l-.155.008-.083.014a2.13 2.13 0 01-1.982-1.335l-.06-.166-8.472-28.966a2.012 2.012 0 01-.091-.603c0-.865.532-1.64 1.374-1.98l.093-.033.002-.002.099-.034 11.346-3.311c.198-.06.396-.09.596-.09a2.113 2.113 0 011.99 1.333l.06.166 1.766 6.041 36.336-12.145-.536-1.831a2.071 2.071 0 01-.09-.613 2.113 2.113 0 011.317-1.936l62.01-21.322-.392-1.343a2.112 2.112 0 011.198-2.554l.158-.06 74.77-25.186-.866-2.966a1.939 1.939 0 01-.078-.596c0-.35.087-.693.255-1.014a2.11 2.11 0 011.093-.958l.175-.058 21.755-6.36c.199-.03.41-.03.525-.006zm-96.14 94.422l-40.51 95.51-.542-.23.542.233a6.627 6.627 0 01-3.719 3.578l48.47.001a6.623 6.623 0 01-4.232-5.861l-.008-.308-.001-92.923zm13.221.015v92.908a6.615 6.615 0 01-4.233 6.168h48.456a6.597 6.597 0 01-3.6-3.331l-.113-.25-40.51-95.495zm-21.676-9.76a.988.988 0 00-.762.491l-.062.125-42.342 99.905a5.53 5.53 0 00.472 5.166 5.496 5.496 0 004.268 2.477l.272.009.242-.005a5.525 5.525 0 004.737-3.113l.106-.232.012-.032 41.29-97.354a.869.869 0 00.07-.242l.009-.126-.01-.123a1.056 1.056 0 00-.447-.728l-.064-.039-.061-.033-.01-.007.176-.368-.074.074-.13.267.032.018-.032-.016-.005.013a16.945 16.945 0 01-1.512-.814l-.339-.214c.003-.006.002-.007 0-.008l-.004.005-.11-.066.01.007a15.36 15.36 0 01-1.394-1.002l-.125-.103-.17-.139v-.002l-.017-.013-.111-.098-.098-.093-.084-.072a15.393 15.393 0 01-.459-.423 18.058 18.058 0 01-.392-.381l-.247-.256-.08-.082v.002l-.025-.027-.022-.023-.14-.15-.159-.183-.003-.003-.053-.063-.067-.075-.004.005-.205-.241c-.07-.084-.14-.174-.219-.274l-.22-.286-.034-.045-.008-.01-.338-.416a3.83 3.83 0 01-.103-.14 1.037 1.037 0 00-.718-.433l-.237-.01zm19.48 7.21l-.009.003.011.002h-.021l-.44.111c-1.33.315-2.64.478-3.955.478-1.289 0-2.586-.159-3.894-.464l-.492-.123h-.061l-.044.002a.968.968 0 00-.623.216.994.994 0 00-.384.666l-.009.133v94.434c0 1.454.583 2.858 1.615 3.89a5.495 5.495 0 003.892 1.616 5.511 5.511 0 005.502-5.267l.005-.239v-94.434c0-.272-.107-.53-.295-.717-.191-.184-.44-.29-.797-.307zm10.693-7.207h-.143c-.125 0-.24.02-.35.06l-.098.042-.09.057a.901.901 0 00-.236.237 17.25 17.25 0 01-2.771 3.06l-.398.336.011-.01c-.114.1-.236.197-.366.293l-.19.134.004.006-.324.237-.004.002.006.008a17.578 17.578 0 01-2.473 1.513l-.491.236-.037.027-.054.042-.051.065-.058-.044-.016.007.056.048-.005.006.005.005-.1.119-.003-.003-.005.007-.024.073-.011-.003v.003l-.284-.093-.037.016.302.15-.052.107-.004.011-.022.086c-.006.03-.01.06-.014.09l-.004.088c0 .088.012.181.035.27l.042.132 41.305 97.369a5.51 5.51 0 004.822 3.343l.254.006.517.002a5.757 5.757 0 001.684-.41 5.496 5.496 0 002.95-3.012 5.468 5.468 0 00.411-2.075c0-.627-.11-1.254-.325-1.84l-.115-.291.482-.209-.484.205-42.465-99.898a1.016 1.016 0 00-.662-.588l-.12-.022zm-127.082-12.147a.935.935 0 00-.19.019l-.097.025-11.285 3.294a1.014 1.014 0 00-.702.834l-.008.13a.92.92 0 00.019.19l.025.097 8.471 28.962c.123.388.454.66.851.71l.135.008.103.002.054-.01.097-.025 11.362-3.312a.995.995 0 00.597-.475 1.109 1.109 0 00.106-.709l-.021-.103-.02-.067-8.511-28.852a1.014 1.014 0 00-.986-.718zm40.52-4.67l-36.336 12.146 4.291 14.668 37.212-9.153-5.167-17.661zm71.455-8.614l-.412.006-.268.012-.158.008.158-.008c-.137.007-.276.016-.417.028l.259-.02c-.15.01-.302.022-.456.036l.197-.016c-.146.012-.295.026-.447.042l.25-.026c-.144.014-.29.03-.438.047l-.227.03-.373.053-.391.06c-.314.053-.626.115-.934.187l-.12.036c-.195.04-.387.089-.578.142l-.387.115-.461.153-.004-.003.001.003-.081.028-.332.116c-.26.097-.517.201-.771.311l-.243.12-.004-.01-.012.006.004.01-.399.176c-.228.112-.454.23-.677.352l-.276.158-.286.169-.25.153-.004-.005-.013.008v.002l-.03.016-.166.105-.143.093-.288.208-.104.078-.007-.012-.007.005.008.011-.01.008c-.173.12-.346.246-.528.386l-.28.22-.208.175-.173.154-.02.017-.12.106c-.188.164-.314.276-.423.38l-.159.153-.3.304-.104.11-.003-.002-.005.006.003.003-.324.345-.13.142-.038.045-.002-.002-.105.118-.264.324-.138.175-.03.043-.016.018-.302.401-.148.203-.398.596-.024.037-.06.095h-.002l-.045.071a8.05 8.05 0 00-.13.214l-.138.235-.006.01-.129.224-.23.432-.197.399-.022.048-.001-.001-.007.015-.059.125-.01.025h-.002l-.005.011.006.003-.223.504-.111.262-.006-.003-.005.012.006.003-.076.187-.143.396.004.002-.218.65-.06.198-.004-.002-.002.008.003.002-.059.205-.04.168-.02.094-.018.062-.12.48-.104.479-.003-.001-.003.016h.002l-.016.082-.013.095h.003l-.034.206h.001c-.118.738-.19 1.448-.215 2.142l-.01.518v.221l.003.19c.003.1.009.207.018.344l.022.319-.001-.001.025.251-.001.102.046.443a15.877 15.877 0 002.75 7.214l.282.393.433.562.083.104.062.075c.032.04.064.077.096.115l.152.173.355.396.021.021.005-.004.406.418.189.188.025.025.19.176.268.24.007.007.22.198-.004.005.018.017.005-.003a16.143 16.143 0 003.522 2.257l.081.048.005.002.367.166c.566.244 1.133.454 1.701.628l.46.132.052-.002c.068-.001.124.004.229.023 2.6.682 5.33.682 7.992-.013a.996.996 0 01.16-.01l.06.001.453-.128c.523-.158 1.028-.34 1.516-.543l.407-.18a.702.702 0 01.099-.073l.089-.051.005-.002.018-.01.017-.007.027-.018.589-.291.347-.182c.966-.533 1.87-1.16 2.696-1.867l.405-.36.08-.075.18-.163.016.015.015-.014-.015-.016.157-.154.22-.234.026.024c.001 0 .002 0 .002-.002l-.02-.02.012-.014-.005-.004c.143-.143.287-.296.441-.468l.324-.372.004.004.011-.013.04-.04-.017.024.024.017.035-.041-.026-.02a15.974 15.974 0 003.643-9.763l.005-.435-.008-.475v-.055a16.767 16.767 0 00-.215-2.135l-.059-.323-.035-.182-.014-.04-.025-.078-.018-.074a16.027 16.027 0 00-.537-1.955c-.087-.245-.182-.49-.282-.734h-.003l-.117-.276-.243-.518-.057-.118-.013-.032-.166-.356-.029-.055-.273-.489-.09-.151.006-.005-.083-.143-.224-.376-.03-.047-.08-.126-.07-.108-.014-.02-.007.006-.14-.213-.025-.04.013.02c-.25-.364-.513-.715-.79-1.054l-.002.002-.034-.046a16.054 16.054 0 00-5.185-4.156l-.056-.03.056.03c-.327-.165-.66-.319-.998-.461-.03-.014-.062-.027-.093-.04l.093.04c-.771-.324-1.57-.59-2.39-.79l-.125-.03.125.03c-.102-.025-.204-.05-.307-.072l.182.041c-.13-.03-.262-.06-.395-.088l.213.047c-.259-.058-.52-.11-.782-.155l.225.04c-.136-.026-.272-.05-.408-.071l.183.03a24.973 24.973 0 00-.38-.06l.197.03a11.06 11.06 0 00-.365-.054l.168.024c-.136-.02-.272-.038-.408-.055l.24.03c-.132-.017-.264-.034-.397-.049l.157.019a14.508 14.508 0 00-.358-.04l.2.021c-.144-.016-.289-.03-.434-.042l.234.021a23.203 23.203 0 00-.379-.033l.145.012c-.15-.013-.3-.023-.45-.032l.305.02c-.132-.01-.265-.018-.398-.025l.093.005a15.594 15.594 0 00-.485-.02l-.426-.005zm-8.754-17.087l-61.744 21.3c-.42.127-.706.512-.713.95 0 .066.006.127.02.19l.024.097 6.829 23.337c.05.165.143.313.267.433l.088.075.09.051c.11.057.226.092.36.107l.315.018.021.003 45.25-10.968c.414-.097.717-.442.768-.858l.008-.127-.003-.286a9.79 9.79 0 00-.018-.312l-.038-.55-.006-.198-.001-.098c-.032-8.138 5.648-15.091 13.449-16.813a2.092 2.092 0 01-.337-.568l-.057-.163-.481-1.642-.027.008-3.366-11.53.019-.006-.717-2.45zm-2.403 33.15a11.168 11.168 0 0010.85 11.151l.308.005-.002 1.103c-6.663-.011-12.073-5.315-12.255-11.936l-.004-.32 1.103-.003zm78.137-62.294l-74.731 25.174c-.478.157-.76.642-.676 1.13l.03.122.54 1.854 4.732 16.168c.116.378.446.653.832.704l.13.008.134.004a17.85 17.85 0 011.531-.117l.498-.008v.088h.002v-.088h.006l.355.005a17.25 17.25 0 0116.41 13.519c.057.272.22.505.453.646.143.087.286.139.457.157l.326.022 61.844-15.344-12.873-44.044zm-185.622 38.46l.62.912c-.391.266-.74.589-1.035.958l-.102.139-.118.17-.286-.195.032.024.24.18-.053.082-.011.013-.005.009.012.009c-.085.13-.166.271-.24.415l-.106.219-.002-.001-.058.127-.007.018-.521-.173.51.204a4.825 4.825 0 00-.333 1.413l-.014.27v.019l.003.16.004.038-.542.067.32-.014.225-.01c.008.157.02.302.038.436l.03.192-.01.002.004.024-.002-.001.043.24.004.019c.054.225.106.41.165.574l.058.15.171.352.184.352.046.081.006.01.005-.002.077.118.095.133.052.066-.005.004.179.215.063.071.003-.002.044.043.155.175.113.115-.37.409.39-.39.068.061.239.187.001-.001c.13.104.265.2.404.286l.211.124.028.015.003-.004.161.096.033.019.097.051.3.121.138.049-.125.375.14-.381.217.076.103.028-.003.009.008.003.003-.01c.127.034.235.061.334.083l.135.027.094.012.058.008.061.004.186.015.35.03h.356l.076-.005a5.13 5.13 0 00.328-.04l.255-.042.051-.014.218-.073.051.169.001.006h.006l-.05-.177.036-.011-.002-.006c.157-.038.297-.076.425-.119l.175-.063.031-.015.264-.15.047-.025-.002-.004.178-.089c.098-.049.172-.089.234-.126l.049-.032.13-.105.157-.129.026-.02.266-.207c.039-.032.07-.059.099-.086l.042-.04.78.78a2.786 2.786 0 01-.169.156l-.332.262-.113.097c-.074.064-.13.11-.187.152l-.07.046.004.006c-.08.054-.16.101-.255.152l-.334.17-.16.091c-.069.04-.124.07-.178.097l-.083.037-.02-.049-.201-.482.214.534-.014.005.003.006-.193.07c-.067.023-.14.045-.229.07l-.309.086-.258.085-.102.025h-.005l-.005.002-.28.052a5.539 5.539 0 01-.6.061l-.088.002-.004.006h-.229c-.083 0-.148-.005-.238-.016l-.234-.03-.27-.022-.219-.026.043-.302-.055.298-.263-.052a3.513 3.513 0 01-.214-.054l-.105-.03-.007-.003-.003.01-.326-.104-.063-.022-.254-.088a2.555 2.555 0 01-.196-.08l-.094-.045-.027-.013-.001.004-.12-.066-.022-.013-.015-.009-.196-.11-.012-.007-.005.008a6.964 6.964 0 01-.628-.407l-.131-.1.004-.006-.277-.218c-.023-.02-.044-.037-.064-.056l-.062-.059.021.02-.09-.087.09.087a3.165 3.165 0 01-.243-.247l-.11-.129-.006.006-.174-.2-.153-.186.006-.006-.02-.023-.006.004-.208-.294-.065-.098-.007-.012-.019-.032-.083-.137a3.525 3.525 0 01-.102-.192l-.082-.173-.118-.218-.07-.148-.015-.061-.068-.176a5.576 5.576 0 01-.138-.444l-.064-.252.519-.125-.521.116-.05-.28-.005-.029.188-.042.289-.064-.47.09-.005-.027-.01.002-.042-.31a5.067 5.067 0 01-.034-.34l-.006-.11h.006l-.005-.025a1.158 1.158 0 01-.013-.165l.008-.11.005-.03-.002.03.522-.001-.522-.009.005-.123.009-.19a5.671 5.671 0 01.306-1.503l.109-.284-.014.038c.02-.06.038-.105.06-.15l.035-.068.015-.035.002-.005-.014-.006c.084-.184.18-.365.296-.563l.124-.205.012.007.005-.006.338.218.112.07-.44-.33.053-.082.036-.05-.015.02c.079-.116.162-.229.249-.338a5.05 5.05 0 011.063-1.042l.235-.167zm208.915-50.729l-.267.47c-.135-.078-.291-.116-.56-.122l-.129-.012-.074-.004-21.692 6.346c-.25.07-.473.248-.597.475a1.064 1.064 0 00-.124.494c0 .096.005.166.017.224l.013.055-.527.162.53-.154 14.069 48.111.023-.005-.001.08 1.145 3.912c.123.389.454.66.851.71l.135.008h.458l21.531-6.298a1.013 1.013 0 00.691-1.162l-.025-.097-15.227-52.104a1.061 1.061 0 00-.384-.542l-.114-.073.258-.474zm-199.633 55.631v.011c0 .108-.006.202-.02.322l-.039.305-.5-.059.439.059.06.009-.02.225a3.09 3.09 0 01-.024.22l-.017.097.003-.012a1.953 1.953 0 01-.048.204l-.135.405-.024.096c-.037.143-.065.24-.1.336l-.039.096-.01-.005-.002.004.01.004-.063.137a3.79 3.79 0 01-.082.151l-.138.247-.008-.004-.003.004-.004-.002-.009.019.003.002-.024.043-.065.136c-.03.06-.058.11-.088.16l-.015.03-.029.05-.005-.003-.012.02-.326-.217-.044-.026.316.226.044.032c-.057.079-.112.15-.189.24l-.198.23-.092.115a3.466 3.466 0 01-.184.218l-.058.06-.78-.78.068-.074.192-.238.421.344-.126-.107-.289-.244.128-.148c.076-.089.127-.15.17-.204l.037-.053.004-.007.13-.249.036-.074h.003l.022-.036v-.001l.192-.338.033-.073.007.002.004-.009.12-.4.013-.039.122-.363.027-.109.538.095-.536-.107.008-.05.041-.422.001-.012.045-.376.005-.113h1.103zm-2.6-4.897l.02.014.004-.005c.186.129.36.263.527.406l.244.22-.004.004.032.032-.014-.01-.01-.007-.314.469-.014.02.021-.02.39-.39c.43.43.79.935 1.073 1.494l.134.283-.504.224.512-.204.001.003.01-.003.067.176c.073.18.137.363.189.548l.065.262.034.136.02.093.009.059c.015.085.03.17.042.257.03.191.05.367.06.538l.006.243-.871-.001-.232.009v-.009l-.002-.034-.015-.246a6.092 6.092 0 00-.03-.282l-.023-.146-.02-.117.001-.001-.001-.01.359-.068-.364.046-.03-.138-.013-.05.002-.001-.002-.01.207-.052-.211.046a3.79 3.79 0 00-.122-.43l-.081-.217.003-.002-.003-.01.535-.219-.537.216-.002-.005-.009.005-.063-.166-.122-.255a4.99 4.99 0 00-.658-.97l-.198-.216.002-.004-.05-.043-.026-.027a5.17 5.17 0 00-.477-.407l-.15-.104.002-.006-.005-.003.144-.209.461-.706zm-5.715-.543l.212.501.235.508c-.217.1-.402.195-.57.296l-.183.115-.612-.919c.07-.046.141-.091.214-.135l-.214.135c.228-.152.456-.284.687-.396l.203-.092.012-.006.016-.007zm2.39-.496c.293 0 .585.021.867.062l.116.02.126.022.04.004.081.017.033.012-.074-.016c.4.08.753.181 1.085.318.258.107.507.239.783.41l.213.135.004.002-.307.459-.301.462-.021-.013-.24-.149a4.878 4.878 0 00-1.132-.47l-.294-.07h-.011l-.081-.017-.013-.006-.031-.005-.116-.02a5.284 5.284 0 00-.416-.044l-.312-.01v-1.103zm-.034 0v1.103l-.29.009-.07.005a4.85 4.85 0 00-1.173.242l-.3.112-.221-.541-.201-.478a5.749 5.749 0 011.919-.443l.336-.009zm51.547-53.994l.194.321.38.621a4.828 4.828 0 00-2.307 4.13c0 1.183.433 2.319 1.21 3.199l.128.136c.03.016.051.034.073.057l.049.065.18.166c.156.135.318.26.486.372l.245.155c.088.05.178.1.27.145l.276.128.153.062c.153.06.304.11.456.15l.228.055-.001.001.03.006.146.031-.08.553.096-.55c.271.047.486.075.684.086l.193.005c.206 0 .424-.02.684-.058l.204-.033.092.533-.006-.047-.07-.489.1-.021.07-.018.132.463.018.065-.116-.537c.151-.033.3-.074.446-.123l.212-.08.151.367.042.104-.018-.047-.17-.426.145-.055v-.002a5.21 5.21 0 001.006-.59c.084-.066.169-.135.252-.207l.187-.174.034-.03.005-.005.379.389.396.396a5.68 5.68 0 01-.713.603 5.73 5.73 0 01-.822.498l-.259.119-.015.008-.008.003-.07-.164.069.17-.173.064a5.106 5.106 0 01-.555.19l-.279.068-.084.023-.025.006-.04.01-.024.005-.016.003-.086.014v.001a6.854 6.854 0 01-.875.103l-.2.004c-.075 0-.148-.001-.223-.005l.223.005c-.276 0-.545-.02-.814-.062l-.221-.04-.03-.005v-.001l-.059-.01-.146-.03.03-.209.025-.178-.078.38-.012-.002v.002a5.141 5.141 0 01-.575-.154l-.285-.104.001-.004-.16-.063.212-.53-.22.526-.005-.003v.001l-.138-.063-.146-.066a5.685 5.685 0 01-.56-.314 5.721 5.721 0 01-.774-.58l-.231-.219.005-.006-.022-.022-.005.006a5.953 5.953 0 01-1.29-1.91 5.921 5.921 0 011.29-6.472c.26-.26.549-.493.87-.708l.249-.157zm6.178 0l.003.002.039.024.206.131c.322.215.61.447.871.708a5.945 5.945 0 011.29 6.472 5.881 5.881 0 01-.887 1.461l-.13.155-.037.04-.007.01-.027.03-.2.212-.402-.398-.384-.376a4.804 4.804 0 001.398-3.398 4.853 4.853 0 00-2.098-3.995l-.21-.137.275-.448.3-.493zm-3.09-.863l.34.005.096.006.038.001c.041.002.08.006.13.012l.164.023-.056.507.003-.017.065-.488.269.038.16.029.148.035.077.016.127.04.325.1.323.116v.001l.085.034-.097.29.054-.054.094-.22.012.005.029.012.106.047a8.377 8.377 0 01.436.223l.12.07-.289.47-.276.478-.286-.157a4.405 4.405 0 00-.15-.072l-.102-.047v.002l-.064-.026-.021-.005a.26.26 0 01-.061-.026l-.262-.095-.271-.083.023-.086.127-.455-.085.255-.092.278-.115-.034.091-.55-.142.539-.092-.022-.347-.053-.27-.03-.079-.005-.142-.004h-.142l-.284.004-.079.005-.27.03-.24.034-.107.02-.092.02-.141-.528.047.288.043.252-.07.02-.045.014-.082-.242-.09-.272.1.359.045.163-.271.083-.273.099-.07-.182-.126-.324.171.515-.08.031v.002l-.164.071-.026.012a3.95 3.95 0 00-.17.088l-.186.107-.004-.005-.007.005-.576-.941a4.94 4.94 0 01.525-.276l.166-.076.001.003.056-.027.001.004.028-.018a.32.32 0 01.104-.038l.02-.003.261-.094.298-.09.154-.049.077-.016.148-.035.027-.006.027-.006.11-.019.033-.005.02-.002.212-.03-.001.001.005-.001.068.547-.06-.548.232-.03c.021-.003.042-.004.062-.005l.065-.001.253-.01.155-.001zm93.393-25.542l.128.01.205.01-.205-.01.313.016.12.008.058.005c.056.004.11.01.163.016l.032.004c.067.008.131.017.194.027l.104.02.08.015.005.001-.119.553-.109.527-.004-.002v.001l-.05-.01-.097-.017a4.935 4.935 0 00-.518-.051l-.205-.01-.236.01v.001l-.329.023-.307.036-.017.003-.24.041-.027.006-.001-.002h-.001a5.676 5.676 0 00-.54.161l-.185.066-.039.018-.307.151-.345.178-.081.049-.322-.501.32.502-.152.103-.153.116-.004-.005-.02.016-.175.136-.16.14-.262-.287.214.261.037.044c-.077.063-.14.119-.195.172l-.076.08-.273.333-.09.123c-.09.125-.165.237-.23.344l-.083.143-.008-.006-.003.006-.164.293-.012.024-.122.304-.05.139-.396-.133.403.147-.076.218-.029.102-.008-.002-.003.008.01.002a6.554 6.554 0 00-.084.335l-.027.13-.017.137-.021.267-.472-.034.472.037-.03.342-.002.043a4.846 4.846 0 004.591 4.829l.232.006.052-.001.105-.003c.071-.003.145-.008.221-.016.056-.005.114-.011.175-.02l.131-.018.204-.033.095.554-.07-.558.06-.011.1-.027v.002l.011-.002.024.085-.023-.089c.153-.04.304-.084.457-.135l.233-.08c.007.006.012.004.017.002l-.003-.008.079-.027.001.004.077-.028.256-.123a4.96 4.96 0 00.97-.658l.183-.168.029-.025.004-.005.374.383.402.402c-.43.43-.935.79-1.494 1.072l-.283.134-.006-.012-.012.007-.035.018.003.007-.078.027-.003-.005-.075.027.003.004a4.745 4.745 0 01-.552.19l-.256.064-.1.027c-.035.01-.07.017-.105.024l-.1.018-.001-.002-.235.038c-.23.035-.433.056-.634.064l-.201.004h-.011l-.212-.004a5.929 5.929 0 01-5.714-5.932c0-.061.003-.118.01-.183l.035-.29.028-.329.021-.164.509.077.009.001-.515-.096.053-.262c.017-.077.034-.146.053-.215l.031-.104.006-.022-.009-.002.1-.315.022-.06.088-.255c.027-.073.052-.135.08-.196l.044-.093-.015.034c.022-.052.042-.096.067-.144l.156-.272c.1-.183.21-.356.348-.549l.148-.201.006.004.005-.004.447.335-.433-.354.268-.33.047-.054c.075-.083.156-.162.247-.243l.116-.1-.004-.005a5.95 5.95 0 01.27-.23l.145-.112.004.005.006-.005-.003-.005.247-.182.134-.09.003.004.006-.003.1-.062-.1.062c.08-.052.165-.101.257-.15l.291-.144.32-.166.08-.034-.025.012.003.004.021-.009.018-.007.018-.007.17-.066c.14-.051.285-.096.44-.139l.243-.062.114.475.014.061-.119-.538.28-.05.03-.005-.001.001.011-.001.118.532-.026-.186-.05-.354.311-.04a3.96 3.96 0 01.36-.03l.085-.002.092-.015a.835.835 0 01.102-.006zm3.979 8.667l.429.313.47.327a5.957 5.957 0 01-.47.595l-.167.175-.381-.381-.41-.39c.122-.127.24-.262.355-.41l.174-.229zm.755-1.741l.54.112.542.109a5.8 5.8 0 01-.316 1.068 5.03 5.03 0 01-.41.796l-.137.216-.014-.008-.003.006-.314-.214-.593-.387.007-.011-.012-.009c.283-.416.5-.884.637-1.379l.073-.3zm74.168-22.332v.014h1.103l-.002.07-.009.063c.024 4.594 1.482 7.479 4.043 9.065 1.74 1.077 3.716 1.471 6.215 1.512l.447.003v1.104c-2.711 0-4.817.375-6.657 1.514-2.477 1.535-3.92 4.288-4.03 8.633l-.007.426v.107h-.009l-.002.011h-1.103l.003-.072.008-.067v.021c-.029-4.593-1.498-7.477-4.073-9.062-1.745-1.074-3.722-1.467-6.21-1.508l-.443-.003v-1.104c2.678 0 4.798-.38 6.646-1.524 2.492-1.541 3.947-4.296 4.062-8.635l.007-.425v-.107h.007l.004-.036zm-72.965 21.364c0 .293-.021.585-.062.867l-.048.278-.181-.037-.913-.176c.04-.203.066-.412.079-.62l.01-.312h1.115zm-159.063-66.3c18.445 0 33.393 14.953 33.393 33.399a33.337 33.337 0 01-13.019 26.435l-.422.32a33.186 33.186 0 01-19.377 6.637l-.602.005h-.013l-.566-.005a33.166 33.166 0 01-18.397-5.921l-.012-.008a29.049 29.049 0 01-.458-.323l-.447-.329-.025-.012a.526.526 0 01-.132-.107l-.059-.045-.005.007a33.554 33.554 0 01-6.348-6.288 33.317 33.317 0 01-6.948-20.367c0-18.259 14.66-33.098 32.851-33.393l.564-.004v1.103c-17.83 0-32.29 14.453-32.29 32.283a32.21 32.21 0 0012.424 25.459l.412.316.131.098c.024.02.048.036.07.054l-.015-.01c.335.25.675.494 1.019.731 5.144 3.54 11.236 5.525 17.635 5.651l.602.006.571-.005a32.257 32.257 0 0018.276-6.066l.478-.35.073-.057.316-.24c7.874-6.073 12.587-15.431 12.587-25.576 0-17.654-14.163-31.994-31.755-32.29l-.534-.004v-1.103h.022zm158.611 64.011c.254.604.404 1.255.442 1.921l.01.334h-1.104c0-.517-.086-1.03-.256-1.532l-.112-.3.511-.209.509-.214zm-.546-1.018l.008.012.003-.001c.144.215.269.433.385.668l.113.241-1.009.448-.011-.023-.004.003a3.948 3.948 0 00-.248-.489l-.155-.247.918-.612zm-3.735-2.53c.251.052.497.123.752.216l.26.1-.034-.012c.067.022.117.043.19.078l.068.033.177.082c.105.052.212.109.323.172v.002l.064.035.203.122.02.01.076.048-.001.002.036.022.018.013c.326.222.598.441.852.695.168.168.315.34.477.553l.034.043.017.025.015.02.146.202.006.01-.442.299-.464.33-.009-.013-.055-.075-.075-.105-.066-.088a4.763 4.763 0 00-.816-.808l-.24-.176.001-.003-.022-.013v.001l-.049-.025.202-.404-.234.38a6.17 6.17 0 00-.44-.249l-.216-.104.226-.499-.244.49-.108-.051-.018-.007.173-.523-.207.51a4.75 4.75 0 00-.622-.21l-.198-.047.224-1.08zM1378 399.56c-.714 2.564-2.094 4.405-4.035 5.606-.813.502-1.662.871-2.568 1.133.907.259 1.757.625 2.572 1.127 1.947 1.198 3.33 3.04 4.043 5.608.706-2.564 2.078-4.405 4.011-5.603.81-.501 1.654-.868 2.557-1.129a10.084 10.084 0 01-2.562-1.128c-1.937-1.2-3.311-3.044-4.018-5.614zm-228.984.695l.157.226-.919.611a5.33 5.33 0 00-6-2.15 5.338 5.338 0 00-3.77 5.165 5.15 5.15 0 00.731 2.745l.155.244a5.355 5.355 0 004.455 2.34c.958 0 1.895-.258 2.706-.744l.24-.153.861-.584v1.377l-.242.164a6.35 6.35 0 01-3.565 1.088 6.445 6.445 0 01-5.21-2.642l-.16-.23a6.241 6.241 0 01-1.075-3.61 6.433 6.433 0 0111.636-3.847zm82.608-16.278l1.101.05-.001.073-.021.26v.031-.01c.077 4.484 1.544 7.3 4.086 8.851 1.73 1.055 3.689 1.443 6.156 1.483l.44.003v1.104c-2.676 0-4.765.369-6.596 1.486-2.462 1.502-3.917 4.192-4.075 8.435l-.011.406.02.29.002.074-1.101.05-.005-.051h-.042l.011-.352v.01c-.076-4.486-1.554-7.306-4.111-8.86-1.689-1.027-3.594-1.424-5.95-1.481l-.19-.004-.442-.003v-1.104c2.65 0 4.745-.37 6.582-1.488 2.477-1.506 3.941-4.2 4.1-8.444l.012-.415-.011-.285v-.059l.041-.001.005-.049zm.526 4.571l-.073.257c-.736 2.45-2.1 4.215-3.996 5.37-.796.484-1.626.84-2.51 1.096.884.253 1.714.61 2.51 1.094 1.961 1.195 3.354 3.043 4.07 5.628.715-2.585 2.105-4.433 4.063-5.627a10.177 10.177 0 012.507-1.097 10.09 10.09 0 01-2.506-1.095c-1.958-1.194-3.349-3.042-4.065-5.626zm-77.235-.34v1.104a3.757 3.757 0 00-3.752 3.751 3.757 3.757 0 003.752 3.752c2 0 3.64-1.574 3.747-3.546l.005-.206h1.104a4.86 4.86 0 01-4.856 4.855 4.86 4.86 0 01-4.855-4.855 4.861 4.861 0 014.62-4.849l.235-.005zm-19.994-22.098a8.089 8.089 0 015.707 6.585l.037.293-.577.064-.518.067a6.774 6.774 0 00-2.257-4.235 6.824 6.824 0 00-9.005-.02 6.834 6.834 0 00-1.195 8.932 6.821 6.821 0 005.435 3.033h.197l.298-.012.001.01h.009l.361-.021.048-.006.077.543-.06-.545.245-.038.027-.004.37-.067c.485-.1.94-.244 1.368-.433l.314-.15.805-.416v1.287l-.315.15a8.31 8.31 0 01-1.966.65l-.392.067-.133.025-.201.025-.001-.001-.06.009a2.92 2.92 0 01-.17.014l-.254.013-.036-.498.03.488-.012-.001v.012a8.16 8.16 0 01-.564.003h-.028a8.04 8.04 0 01-5.83-2.599 8.099 8.099 0 01-.899-9.743 8.097 8.097 0 019.144-3.481zm5.754 6.948c.022.175.037.353.045.535l-.006-.085c.014.177.02.322.02.468l-.011.214v.09l-.022.245-.012.155-.551-.043.55.046a7.184 7.184 0 01-.081.656l-.04.197h.001l-.002.009-.064.307-.039.144h.002a6.082 6.082 0 01-.178.583l-.089.224-.017.047-.067.186-.045.118-.046.106h-.001l-.142.309a7.526 7.526 0 01-.323.59l-.175.275-.918-.613c.143-.218.273-.44.389-.668l.163-.344.505.223-.502-.228.127-.336.491.178-.49-.183c.082-.216.145-.398.2-.574l.051-.175.083-.375.01-.042.006-.039.034-.178c.012-.077.023-.156.033-.237l.025-.248v-.011l.009-.114.022-.292.004-.26a7.286 7.286 0 00-.01-.324l-.036-.426.55-.043.547-.067zm8.501-3.614a5.158 5.158 0 001.255.903l.277.132.064.023h.002l.078.026-.002.007.025.012.004-.009c.156.061.325.116.517.17l.199.051.165.038.034.005-.001.011h.001l-.065.52.033-.184.058-.332h.001l.002-.01c.274.048.498.077.708.087l.155.003v1.115c-.256 0-.51-.023-.815-.069l-.239-.039-.12-.02-.185-.043.003-.011h-.003a7.622 7.622 0 01-.654-.192l-.196-.072-.044-.017-.002.007-.055-.025-.06-.022v-.004l-.012-.005-.03-.014-.002.006a6.123 6.123 0 01-1.628-1.037l-.173-.161-.066-.061.771-.79zm3.576-9.878l.082.002.118.017v-.007c.198.008.38.023.557.045l.265.04-.003.01.007.001-.059.322h.002l.066-.33.328.056.001-.001.003.002c.23.05.465.117.716.205l.256.094-.004.01.014.005.02.009.004.001.093.039c.045.02.091.045.147.077l.097.057.02.011v.001l.004.002.007-.014.13.066.104.053.006.004c.042.021.08.042.115.061l.023.014.014.008.027.015.131.083c.074.043.138.086.219.144l.203.151-.261.358-.069.094.336-.447.22.174.22.192.005.005.106.091.158.153.003.002.087.085c.066.066.115.122.187.211l.177.223-.15.125.146-.116.004.004.007-.004c.14.173.257.345.398.575l.11.184-.009.004.075.126c.05.083.087.15.12.216l.049.098c.06.13.113.257.16.384l.065.193-.001-.001.13.4-.009.002.009.037h.001l.066.27.061.286.025.149.034.337.005.087.023.184c.016.114.023.196.023.289a6.226 6.226 0 01-5.967 6.217l-.244.006-.004-1.104c.148 0 .294-.007.438-.02l.057-.005-.057.005c.071-.006.142-.014.212-.023l-.155.018c.066-.006.131-.014.196-.023l-.04.005c.141-.018.281-.043.42-.073l.041-.008-.041.008a5.122 5.122 0 004.024-4.77l.005-.278-.03-.343.521-.041-.522.035-.018-.237-.013-.107-.015-.092.541-.109-.542.103-.054-.251-.06-.247.008-.002-.003-.01-.008.003-.044-.16-.06-.16.007-.004-.01-.034-.122-.325-.053-.124-.196-.35-.182-.298a4.48 4.48 0 00-.159-.23l-.078-.103.006-.005-.214-.267-.072-.08-.314-.294-.316-.266-.055-.043-.233-.172-.084-.054.274-.471-.302.454-.115-.072a2.62 2.62 0 00-.142-.078l-.202-.103.358-.718-.021.032-.349.697-.283-.148-.028-.014-.163-.063a5.064 5.064 0 00-.355-.113l-.28-.07.002-.01-.144-.025-.155-.026-.001.01a4.86 4.86 0 00-.49-.058l-.186-.01v-.032l.017-.4-.007-.004-.047.433-.137-.007h-.083a5.045 5.045 0 00-1.514.261l-.24.086-.034.013.002.003-.22.1c-.144.062-.29.135-.437.22l-.224.135-.186-.292.173.289-.005.002.005.009-.133.075-.24.178a5.31 5.31 0 00-.889.896l-.19.258-.907-.628.036-.051.133-.185c.171-.23.349-.44.545-.645.199-.199.415-.384.65-.562l.243-.175.054-.037.13-.081.005.007.144-.09c.116-.071.238-.138.364-.2l.284-.134-.002-.004.221-.099.002.004.007-.003-.001-.004c.297-.122.606-.22.926-.292.316-.073.635-.122.955-.144l.28-.013h.029a.834.834 0 01.138-.012zm-4.224 9.117c.173.234.314.41.451.559l.037.038.065.069-.39.389.46-.305-.005-.007.024.022-.78.78a1.41 1.41 0 01-.114-.122l-.01-.014-.093-.097-.017-.018.145.152a5.62 5.62 0 01-.528-.604l-.132-.186-.016-.022.459-.307.444-.327zm-.787-1.842a4.802 4.802 0 00.597 1.55l.049.079.101.157-.474.316-.441.3a5.376 5.376 0 01-.24-.384 5.935 5.935 0 01-.331-.65c-.1-.24-.179-.478-.25-.758l-.015-.052-.015-.067-.06-.256-.001-.01.54-.108.54-.117zm-.11-1.03l.001.028.006.21c.009.154.025.313.05.481l.025.148.017.085h-.003l.006.028-.875.163-.206.045-.002-.006h-.002l-.017-.099-.034-.184a5.416 5.416 0 01-.061-.592l-.007-.251v-.057h1.103zm-.078-3.453l.93.595-.003.002.014.009c-.108.168-.206.34-.296.518l-.128.27-.502-.224.296.198-.352-.088-.002-.001h-.001l.003.001.51.206a5.25 5.25 0 00-.382 1.656l-.008.278h-1.104l.002-.08.006-.219a6.065 6.065 0 01.341-1.731l.1-.261.01-.027.009-.027a.726.726 0 01.053-.12l.01-.017-.009-.004c.096-.216.203-.426.32-.63l.183-.304zm176.908-21.363c.015 4.633 1.472 7.547 4.038 9.153 1.745 1.091 3.738 1.495 6.232 1.537l.446.003v1.104c-2.555 0-4.6.34-6.373 1.344l-.212.124-.097.058v.001l-.003.001-.22.143c-2.35 1.582-3.706 4.327-3.805 8.604l-.006.418-.552-.002-.184-.001-.367.001c0-4.646-1.451-7.561-4.02-9.163-1.348-.84-2.84-1.269-4.609-1.438a20.239 20.239 0 00-1.627-.087l-.448-.003v-1.104c4.07 0 7.106-.951 8.989-3.808l.173-.274.001-.002.076-.132.085-.145c.844-1.52 1.318-3.44 1.374-5.844l.006-.486h.367l.736-.002zm66.455 10.065l.294.005.103.008-.052.513.075-.52.243.032-.003.011h.003l-.058.396.006-.035.058-.371.36.06.121.025-.003.01.01.002.003-.01.118.028-.003.01.028.006c.149.037.287.079.42.128l.198.079-.212.482.046-.044-.001.089.216-.508.005.003.003-.004c.61.254 1.163.618 1.623 1.079a5.052 5.052 0 011.09 5.525 5.06 5.06 0 01-2.438 2.59l-.238.109v-.002l-.102.043-.235-.471.179.484c-.157.058-.31.109-.465.153l-.232.063-.135-.541.092.55-.131.031-.046.01c-.21.043-.418.073-.627.088l-.313.011c-.073 0-.146-.002-.219-.006l.219.006a4.71 4.71 0 01-.626-.045l-.069-.011-.24-.043h-.005l-.001-.002-.176-.039.091-.55-.081.325-.053.216a6.437 6.437 0 01-.464-.134l-.233-.082.178-.484-.234.47-.074-.027-.039-.019-.202-.093a5.184 5.184 0 01-.444-.247l-.09-.057-.08-.054a5.054 5.054 0 01-.748-7.767 4.954 4.954 0 011.365-.963l.146-.066.078-.034.027-.015c.057-.025.084-.037.12-.045l.115-.042c.066-.025.122-.045.174-.062l-.048.016.108-.036.201-.057.027-.006-.001-.01.068-.015.05-.013.002.01.01-.002-.002-.01.12-.026.015-.002.083-.016.269-.042.243-.033.073.52-.05-.512.102-.008.163-.005h.132zm0 1.103l-.229.004-.056.004-.222.03-.002-.011-.265.043-.128.026-.001-.001-.018.004.003.011-.068.016-.05.012a2.571 2.571 0 00-.233.071l-.21.078a.624.624 0 01-.09.037l.03-.015a3.97 3.97 0 00-2.412 3.652 3.956 3.956 0 002.166 3.52l.214.099-.12.278.139-.275.073.028.018.007.182.064c.065.022.13.042.193.06l.193.053.156.035-.09.535.019-.088.088-.444c.172.034.335.057.49.069l.23.009c.157 0 .314-.012.474-.035l.241-.042.061.291.049.239-.006-.04-.082-.494.13-.031.035-.008.183-.048.194-.06.197-.07-.001.001.077-.031.208.417-.182-.418a3.947 3.947 0 002.373-3.621 3.971 3.971 0 00-2.207-3.558l-.176-.08a.514.514 0 01-.098-.04l-.201-.074-.132-.043-.101-.028-.118-.028.001-.011-.017-.004v.001l-.086-.018-.308-.051-.001.011-.223-.03-.168-.008h-.116zm-67.009-6.658l-.014.053a10.795 10.795 0 01-.952 2.312l-.183.311h-.001l-.172.276c-1.3 2.006-3.046 3.178-5.225 3.787.904.26 1.75.628 2.562 1.131 1.925 1.194 3.291 3.026 3.994 5.571.675-2.425 1.951-4.2 3.74-5.399l.255-.164c.814-.51 1.663-.882 2.574-1.145a10.078 10.078 0 01-2.583-1.142c-1.924-1.199-3.29-3.036-3.995-5.591zm-114.533-5.145c.247.241.514.454.799.636.121.077.249.15.38.217l.27.13-.224.503.247-.493.033.011c.051.018.09.033.13.053h.002l.003.001.001-.001.053.02.25.085.281.083.044.012v.001l.017.005-.091.335-.042.192.15-.525.124.031.046.009-.078.545.094-.543a5.222 5.222 0 00.731.088l.157.003c.194 0 .398-.017.637-.05l.045-.007.207-.034.091.528-.066-.532.046-.009.02-.004.094-.025v.003l.01-.003.024.084-.022-.087c.168-.044.327-.09.473-.14l.209-.074a.031.031 0 00.022-.004v-.003l.078-.027.11-.04-.001.001.226-.108c.347-.18.675-.403.97-.658l.216-.198.364.373.411.412c-.43.43-.934.789-1.493 1.071l-.284.135-.005-.013-.012.008-.044.02v.004l-.078.027v-.001l-.065.024.001.004a5.15 5.15 0 01-.552.19l-.244.061c-.076.022-.148.04-.216.054l-.1.017-.001-.002-.235.038c-.23.035-.433.056-.634.065l-.202.004c-.27 0-.528-.023-.835-.069l-.24-.039-.126-.022-.175-.046-.005-.001v.003l-.034-.011-.117-.028a4.41 4.41 0 01-.37-.113l-.17-.066-.067-.023-.165-.06-.065-.03-.031-.017-.25-.118a5.843 5.843 0 01-.533-.303l-.017-.01a5.708 5.708 0 01-.732-.556l-.221-.208.389-.391.387-.394zm7.356-.691l.462.335.437.304a5.681 5.681 0 01-.47.595l-.148.155-.008.009-.01.011-.391-.39-.4-.38c.122-.127.239-.263.355-.41l.173-.23zm-7.94-.002c.11.16.222.303.337.434l.174.186-.78.78c-.17-.17-.33-.354-.484-.559l-.153-.21.906-.63zm8.696-1.751l.566.118.514.107a5.45 5.45 0 01-.315 1.053c-.104.26-.233.509-.394.765l-.172.26-.454-.315-.459-.305c.29-.433.505-.898.642-1.387l.069-.286.003-.009v-.001zm-9.458.005l.001.005.011-.002a4.4 4.4 0 00.39 1.139l.137.257.177.283-.49.319-.431.289a6.982 6.982 0 01-.556-1.005 4.986 4.986 0 01-.257-.78l-.064-.289.01-.002v-.001l.17-.033.902-.18zm-.1-.98c.009.261.03.505.063.73l.037.217-.541.108-.538.122-.003-.017-.004-.021-.047-.244a5.042 5.042 0 01-.062-.58l-.008-.297.567-.001.536-.016zm9.657 0l.535.017.568.001c0 .277-.024.562-.069.853l-.052.292-.539-.108-.544-.105c.038-.195.065-.402.083-.619l.018-.33zm1.043-.851l-.001.003h.001c.012.088.022.172.03.253l-.03-.256c.015.109.027.215.036.32.006.064.01.126.014.187l.003.05.002.035.001.038.004.195h-1.103a4.92 4.92 0 00-.018-.393l-.01-.098-.014-.11-.008-.075v-.003l.612-.081.48-.065zm-11.743 0l1.094.15-.002.01h.002a5.284 5.284 0 00-.044.45l-.006.204v.01h-1.104v-.01c0-.17.01-.348.028-.533l.032-.281zm.485-1.652l1.007.452-.005.009.005.002c-.077.17-.136.319-.184.46l-.043.139-.025-.008-.011.047.014.005-.005.019.01.004c-.044.13-.08.266-.108.406l-.035.21-.01-.001-.005.026-.585-.107-.493-.066.002-.023-.01-.001c.033-.178.07-.353.112-.521l.066-.25.01.003.008-.025.01.002.005-.021-.01-.002.002-.011h-.003c.052-.181.115-.359.196-.55l.085-.198zm11.058.78l.008.025.01-.002c.047.162.089.332.126.506l.052.264-.012.001.005.023-.491.066-.588.107-.005-.026-.01.002a3.591 3.591 0 00-.082-.418l-.06-.2.009-.003-.005-.02.454-.13.59-.195zm-.306-.8l.011.023.01-.003c.074.164.14.324.2.484l.085.24-.01.003.006.02-.454.13-.589.197-.009-.027-.009.004a3.208 3.208 0 00-.137-.384l-.09-.194.007-.005-.006-.016.395-.178.59-.295zm-.407-.723l.007.01.006-.003a8.173 8.173 0 01.246.41l.013.023.113.216-.004.002.01.02-.938.444-.055.028-.001-.002-.004.002a4.343 4.343 0 00-.116-.227l-.076-.13-.102-.157.004-.003-.017-.026.648-.42.266-.187zm-9.917-.011l.454.32.468.286-.198.329c-.032.056-.06.105-.085.153l-.037.073-.494-.248-.498-.235a4.98 4.98 0 01.251-.467l.112-.171.007-.01.02-.03zm4.964-2.683l.33.006.113.007-.038.453.042-.453h.005l.05.005.067.007c.073.008.133.015.191.025l.071.012.128.02.139.022.053.009.138.027.027.007.105.026.152.043.026.007-.12.538.142-.533.032.01.009.002.146.042c.062.02.124.04.186.062l.186.07v.001l.013.005.013.005.105.041.027.016.087.037-.003.004.016.007.003-.004.26.125c.073.036.133.067.194.102l.093.054-.037-.02c.066.033.132.072.194.116l.052.038.004-.004.253.172.253.19-.005.005.004.003.005-.006.116.096.06.055.126.103c.077.062.129.106.185.162l.056.061.087.105.015.016-.412.38-.036.036.484-.362.06.062-.316.315.331-.286.005.005.006-.005c.112.13.212.251.303.373l.132.183-.91.625-.004-.005-.006.005a5.126 5.126 0 00-.226-.3l-.134-.158.005-.005-.012-.012-.07-.076-.047-.06.002-.002-.039-.042a3.234 3.234 0 00-.166-.159l-.145-.128-.007-.006-.133-.114-.019-.014-.003.004a2.88 2.88 0 00-.255-.192l-.136-.087.002-.005-.006-.004.129-.201.158-.263-.306.46-.164-.107-.002.005a4.96 4.96 0 00-.303-.162l-.112-.053-.002.005-.074-.033-.075-.042-.083-.036v.001l-.128-.047-.319-.102-.073-.018-.152-.043-.022-.006-.29-.052-.069-.011-.044-.006-.044-.004-.271-.037h-.01l-.003-.001-.07-.005-.124-.003h-.15V331zm-.01 0v1.103l-.275.004-.075.005-.28.038-.043.004-.314.051-.075.015v.003l-.06.015-.173.05-.031.006-.217.065-.217.08-.22.094c-.142.063-.25.114-.347.166l-.09.051-.169.11-.198-.296.187.31c-.09.054-.18.114-.273.182l-.145.11-.105.089-.004-.005-.05.042-.008.016.002.001a2.94 2.94 0 00-.267.244l-.099.105-.015.016-.384-.384-.007-.006.332.441.014-.01-.002.004-.012.017-.351-.262.337.293c-.095.11-.178.211-.253.31l-.106.148-.008-.005-.003.005-.91-.625c.085-.122.175-.243.276-.367l.15-.179.004-.005.036-.047c.035-.042.066-.076.103-.11l.012-.01.078-.093.057-.06a.325.325 0 01.093-.076l.08-.074.126-.107.037-.034-.004-.004.155-.133.003.005.004-.003-.003-.005a6.45 6.45 0 01.355-.259l.145-.092.061-.044c.031-.022.063-.043.096-.062l.062-.034c.127-.077.252-.142.406-.213l.141-.064.016-.008a.938.938 0 01.163-.078l.035-.008.038-.014.007-.002.011-.005h.001c.124-.05.248-.094.372-.133l.187-.054.068.254.007.029-.063-.288.059-.016.174-.049.054-.012v.002l.004-.001v-.002c.112-.024.217-.043.348-.063l.132-.021.082-.013.207-.025.03-.003.056-.006.052.516-.043-.517.292-.012.151-.001z" transform="translate(-1112 -331)"/></svg>